# xmcd
#
# Track frame offsets: 
#        150
#        20144
#        49996
#        72143
#        88429
#        122442
#        139934
#        167334
#        174986
#        195248
#        207697
#
# Disc length: 3146 seconds
#
# Revision: 2
# Processed by: cddbd v1.5.2PL0 Copyright (c) Steve Scherf et al.
# Submitted via: ExactAudioCopy v0.99pb4
#
DISCID=9c0c480b
DTITLE=Carl Verheyen - Slang Justice
DYEAR=1996
DGENRE=
TTITLE0=Down Like Hail
TTITLE1=Slang Justice
TTITLE2=Jet Plane Blues
TTITLE3=Two Trains Running
TTITLE4=Spotty Herbert
TTITLE5=Little Swamp
TTITLE6=Passing Through
TTITLE7=Loud Guy Blues
TTITLE8=Silence Is Golden (Sonny's Blues)
TTITLE9=Silence Is Golden (Part 2)
TTITLE10=Lights Out (Live)
EXTD=
EXTT0=
EXTT1=
EXTT2=
EXTT3=
EXTT4=
EXTT5=
EXTT6=
EXTT7=
EXTT8=
EXTT9=
EXTT10=
PLAYORDER=
